<svg width="24" height="24" viewBox="0 0 24 24" fill="none" xmlns="http://www.w3.org/2000/svg">
<path d="M18 3C19.6569 3 21 4.34315 21 6V11.7637C21.6137 12.313 22 13.1115 22 14V21.5C22 21.7761 21.7761 22 21.5 22H20.5C20.2239 22 20 21.7761 20 21.5V20H4V21.5C4 21.7761 3.77614 22 3.5 22H2.5C2.22386 22 2 21.7761 2 21.5V14C2 13.1115 2.38625 12.313 3 11.7637V6C3 4.34315 4.34315 3 6 3H18ZM5 13C4.44772 13 4 13.4477 4 14V18H20V14C20 13.4477 19.5523 13 19 13H5ZM6 5C5.44772 5 5 5.44772 5 6V11H8V9C8 7.89543 8.89543 7 10 7H14C15.1046 7 16 7.89543 16 9V11H19V6C19 5.44772 18.5523 5 18 5H6ZM10 11H14V9H10V11Z" fill="currentColor"/>
</svg>
