<svg width="24" height="24" viewBox="0 0 24 24" fill="none" xmlns="http://www.w3.org/2000/svg">
<path fill-rule="evenodd" clip-rule="evenodd" d="M12 20C12.5523 20 13 20.4477 13 21C13 21.5523 12.5523 22 12 22C11.4477 22 11 21.5523 11 21C11 20.4477 11.4477 20 12 20ZM9 18C9.55228 18 10 18.4477 10 19C10 19.5523 9.55228 20 9 20C8.44772 20 8 19.5523 8 19C8 18.4477 8.44772 18 9 18ZM15 18C15.5523 18 16 18.4477 16 19C16 19.5523 15.5523 20 15 20C14.4477 20 14 19.5523 14 19C14 18.4477 14.4477 18 15 18ZM12 3C15.3137 3 18 5.68629 18 9C20.7614 9 23 11.2386 23 14C23 16.5929 21.026 18.725 18.499 18.9756C18.2244 19.0026 18 18.776 18 18.5V17.5C18 17.2239 18.2257 17.0045 18.498 16.959C19.9179 16.7218 21 15.4872 21 14C21 12.3431 19.6569 11 18 11H16V9C16 6.79086 14.2091 5 12 5C10.066 5 8.45061 6.37385 8.08008 8.19922L7.91699 9H7C4.79086 9 3 10.7909 3 13C3 14.7278 4.0956 16.1994 5.62988 16.7588C5.84422 16.8369 6 17.0336 6 17.2617V18.3262C6 18.6353 5.72119 18.872 5.42285 18.791C2.87422 18.0985 1 15.7679 1 13C1 9.91321 3.33135 7.37083 6.3291 7.03711C7.14239 4.6875 9.37306 3 12 3ZM12 16C12.5523 16 13 16.4477 13 17C13 17.5523 12.5523 18 12 18C11.4477 18 11 17.5523 11 17C11 16.4477 11.4477 16 12 16ZM9 14C9.55228 14 10 14.4477 10 15C10 15.5523 9.55228 16 9 16C8.44772 16 8 15.5523 8 15C8 14.4477 8.44772 14 9 14ZM15 14C15.5523 14 16 14.4477 16 15C16 15.5523 15.5523 16 15 16C14.4477 16 14 15.5523 14 15C14 14.4477 14.4477 14 15 14Z" fill="currentColor"/>
</svg>
