<svg width="24" height="24" viewBox="0 0 24 24" fill="none" xmlns="http://www.w3.org/2000/svg">
<path d="M9.20703 11C9.33962 11 9.46678 11.0527 9.56055 11.1465L12.707 14.293C12.9013 14.4872 12.999 14.7415 13 14.9961V15.0039C12.999 15.2585 12.9013 15.5128 12.707 15.707L9.56055 18.8535C9.46678 18.9473 9.33962 19 9.20703 19H7.29297C7.13121 19 7 18.8688 7 18.707C7.00002 18.6303 7.03031 18.5567 7.08398 18.502L9.58594 16H2.5C2.22386 16 2 15.7761 2 15.5V14.5C2 14.2239 2.22386 14 2.5 14H9.58594L7.08594 11.5C7.03103 11.4451 7.00002 11.3706 7 11.293C7 11.1312 7.13121 11 7.29297 11H9.20703ZM16.707 5C16.8688 5 17 5.13121 17 5.29297C17 5.36969 16.9697 5.44334 16.916 5.49805L14.4141 8H21.5C21.7761 8 22 8.22386 22 8.5V9.5C22 9.77614 21.7761 10 21.5 10H14.4141L16.9141 12.5C16.969 12.5549 17 12.6294 17 12.707C17 12.8688 16.8688 13 16.707 13H14.793C14.6604 13 14.5332 12.9473 14.4395 12.8535L11.293 9.70703C11.0987 9.51277 11.001 9.25852 11 9.00391V8.99609C11.001 8.74148 11.0987 8.48723 11.293 8.29297L14.4395 5.14648C14.5332 5.05274 14.6604 5 14.793 5H16.707Z" fill="currentColor"/>
</svg>
