<svg width="24" height="24" viewBox="0 0 24 24" fill="none" xmlns="http://www.w3.org/2000/svg">
<path d="M12 1C14.7614 1 17 3.23858 17 6V8C18.6569 8 20 9.34315 20 11V20C20 21.6569 18.6569 23 17 23H7C5.34315 23 4 21.6569 4 20V11C4 9.34315 5.34315 8 7 8V6C7 3.23858 9.23858 1 12 1ZM7 10C6.44772 10 6 10.4477 6 11V20C6 20.5523 6.44772 21 7 21H17C17.5523 21 18 20.5523 18 20V11C18 10.4477 17.5523 10 17 10H7ZM12.5 13C12.7761 13 13 13.2239 13 13.5V17.5C13 17.7761 12.7761 18 12.5 18H11.5C11.2239 18 11 17.7761 11 17.5V13.5C11 13.2239 11.2239 13 11.5 13H12.5ZM12 3C10.3431 3 9 4.34315 9 6V8H15V6C15 4.34315 13.6569 3 12 3Z" fill="currentColor"/>
</svg>
