<svg width="24" height="24" viewBox="0 0 24 24" fill="none" xmlns="http://www.w3.org/2000/svg">
<path d="M17 2C18.6569 2 20 3.34315 20 5V19C20 20.6569 18.6569 22 17 22H7C5.34315 22 4 20.6569 4 19V5C4 3.34315 5.34315 2 7 2H17ZM6 11V19C6 19.5523 6.44771 20 7 20H17C17.5523 20 18 19.5523 18 19V11H6ZM9.5 12C9.77614 12 10 12.2239 10 12.5V16.5C10 16.7761 9.77614 17 9.5 17H8.5C8.22386 17 8 16.7761 8 16.5V12.5C8 12.2239 8.22386 12 8.5 12H9.5ZM7 4C6.44772 4 6 4.44772 6 5V9H18V5C18 4.44772 17.5523 4 17 4H7ZM9.5 5C9.77614 5 10 5.22386 10 5.5V7.5C10 7.77614 9.77614 8 9.5 8H8.5C8.22386 8 8 7.77614 8 7.5V5.5C8 5.22386 8.22386 5 8.5 5H9.5Z" fill="currentColor"/>
</svg>
