<svg width="24" height="24" viewBox="0 0 24 24" fill="none" xmlns="http://www.w3.org/2000/svg">
<path fill-rule="evenodd" clip-rule="evenodd" d="M14 3C14.3344 3 14.6466 3.16711 14.832 3.44531L16.5352 6H19C20.6569 6 22 7.34315 22 9V18C22 19.6569 20.6569 21 19 21H5C3.34315 21 2 19.6569 2 18V9C2 7.34315 3.34315 6 5 6H7.46484L9.16797 3.44531C9.35343 3.16711 9.66565 3 10 3H14ZM10.5352 5L8.83203 7.55469C8.64657 7.83289 8.33435 8 8 8H5C4.44772 8 4 8.44772 4 9V18C4 18.5523 4.44772 19 5 19H19C19.5523 19 20 18.5523 20 18V9C20 8.44772 19.5523 8 19 8H16C15.6656 8 15.3534 7.83289 15.168 7.55469L13.4648 5H10.5352ZM12 9C14.2091 9 16 10.7909 16 13C16 15.2091 14.2091 17 12 17C9.79086 17 8 15.2091 8 13C8 10.7909 9.79086 9 12 9ZM12 11C10.8954 11 10 11.8954 10 13C10 14.1046 10.8954 15 12 15C13.1046 15 14 14.1046 14 13C14 11.8954 13.1046 11 12 11Z" fill="currentColor"/>
</svg>
