<svg width="24" height="24" viewBox="0 0 24 24" fill="none" xmlns="http://www.w3.org/2000/svg">
<path d="M22.5 2C22.7761 2 23 2.22386 23 2.5V18.5C23 20.9853 20.9853 23 18.5 23C16.1837 23 14.2761 21.25 14.0273 19H12.5C12.2239 19 12 18.7761 12 18.5V17.5C12 17.2239 12.2239 17 12.5 17H17.5C17.7761 17 18 17.2239 18 17.5V18.5C18 18.7761 17.7761 19 17.5 19H16.0498C16.2814 20.1411 17.2905 21 18.5 21C19.8807 21 21 19.8807 21 18.5V2.5C21 2.22386 21.2239 2 21.5 2H22.5ZM15 4C17.2091 4 19 5.79086 19 8V11C19 13.2091 17.2091 15 15 15H5C2.79086 15 1 13.2091 1 11V8C1 5.79086 2.79086 4 5 4H15ZM5 6C3.89543 6 3 6.89543 3 8V11C3 12.1046 3.89543 13 5 13H6.76367C7.14241 13 7.48879 12.786 7.6582 12.4473L8.6582 10.4473C9.21099 9.34169 10.789 9.34169 11.3418 10.4473L12.3418 12.4473C12.5112 12.786 12.8576 13 13.2363 13H15C16.1046 13 17 12.1046 17 11V8C17 6.89543 16.1046 6 15 6H5Z" fill="currentColor"/>
</svg>
